<svg width="161" height="83" viewBox="0 0 161 83" fill="none" xmlns="http://www.w3.org/2000/svg">
<path d="M0.12 83V0.567993H38.136C46.7547 0.567993 54.136 1.976 60.28 4.792C66.424 7.52266 71.16 11.96 74.488 18.104C77.816 24.1627 79.48 32.2267 79.48 42.296C79.48 56.5467 75.8533 66.9147 68.6 73.4C61.3467 79.8 51.192 83 38.136 83H0.12ZM27.64 62.008H34.808C38.3067 62.008 41.2933 61.496 43.768 60.472C46.2427 59.448 48.12 57.528 49.4 54.712C50.7653 51.896 51.448 47.7573 51.448 42.296C51.448 36.8347 50.8507 32.696 49.656 29.88C48.4613 27.064 46.6267 25.144 44.152 24.12C41.6773 23.0107 38.5627 22.456 34.808 22.456H27.64V62.008ZM103.381 83V52.92L73.685 0.567993H102.357L117.205 29.24L132.053 0.567993H160.725L130.901 52.92V83H103.381Z" fill="#46CB77"/>
</svg>
